<svg width="18" height="23" viewBox="0 0 18 23" fill="none" xmlns="http://www.w3.org/2000/svg">
<path d="M0.715759 7.20532C0.715759 6.31807 0.886032 5.48566 1.22658 4.70807C1.56712 3.93048 2.02786 3.25258 2.60879 2.67438C3.19973 2.0862 3.88583 1.62264 4.66708 1.28369C5.44833 0.944743 6.28467 0.775269 7.1761 0.775269H17.0619V5.06696H7.1761C6.87561 5.06696 6.59517 5.12179 6.33475 5.23145C6.07433 5.3411 5.84396 5.49563 5.64364 5.69501C5.45334 5.88442 5.3031 6.10872 5.19292 6.36792C5.08275 6.62712 5.02766 6.90625 5.02766 7.20532C5.02766 7.50439 5.08275 7.78851 5.19292 8.05768C5.3031 8.31687 5.45334 8.54616 5.64364 8.74554C5.84396 8.93496 6.07433 9.08449 6.33475 9.19415C6.59517 9.30381 6.87561 9.35864 7.1761 9.35864H11.488C12.3794 9.35864 13.2158 9.52812 13.997 9.86707C14.7883 10.196 15.4744 10.6546 16.0553 11.2428C16.6462 11.821 17.107 12.5039 17.4375 13.2914C17.7781 14.069 17.9483 14.9014 17.9483 15.7887C17.9483 16.6759 17.7781 17.5084 17.4375 18.2859C17.107 19.0635 16.6462 19.7464 16.0553 20.3346C15.4744 20.9128 14.7883 21.3714 13.997 21.7103C13.2158 22.0493 12.3794 22.2188 11.488 22.2188H1.91768V17.9271H11.488C11.7885 17.9271 12.0689 17.8722 12.3293 17.7626C12.5898 17.6529 12.8151 17.5034 13.0054 17.314C13.2057 17.1146 13.361 16.8853 13.4712 16.6261C13.5813 16.3669 13.6364 16.0878 13.6364 15.7887C13.6364 15.4896 13.5813 15.2105 13.4712 14.9513C13.361 14.6921 13.2057 14.4678 13.0054 14.2784C12.8151 14.079 12.5898 13.9245 12.3293 13.8148C12.0689 13.7052 11.7885 13.6503 11.488 13.6503H7.1761C6.28467 13.6503 5.44833 13.4809 4.66708 13.1419C3.88583 12.803 3.19973 12.3444 2.60879 11.7662C2.02786 11.178 1.56712 10.4951 1.22658 9.71753C0.886032 8.92997 0.715759 8.09257 0.715759 7.20532Z" fill="white"/>
</svg>
